<svg xmlns="http://www.w3.org/2000/svg" fill-rule="evenodd" viewBox="0 0 100 100">
    <path d="M69.073 81.749 58.471 57.644c13.453-3.835 23.335-16.227 23.335-30.891a1.5 1.5 0 0 0-1.5-1.5H19.051a1.5 1.5 0 0 0-1.5 1.5c0 14.228 9.301 26.319 22.14 30.528L24.625 91.553a1.5 1.5 0 0 0 2.747 1.208l2.185-4.971H62.72l-.001.012c0 3.345 2.724 6.066 6.071 6.066s6.071-2.722 6.071-6.066c.001-3.25-2.571-5.904-5.788-6.053zM20.589 28.252h58.18c-.783 15.366-13.533 27.625-29.093 27.625-15.557 0-28.304-12.259-29.087-27.625zm10.286 56.537 11.739-26.704c2.274.512 4.635.792 7.062.792 1.989 0 3.934-.191 5.824-.539l10.575 24.045a6.1 6.1 0 0 0-2.547 2.406H30.875zm37.916 6.078c-1.693 0-3.071-1.376-3.071-3.066s1.378-3.066 3.071-3.066 3.071 1.376 3.071 3.066-1.378 3.066-3.071 3.066zM40.572 21.493a1.5 1.5 0 0 0 1.5-1.5V6.742a1.5 1.5 0 1 0-3 0v13.251a1.5 1.5 0 0 0 1.5 1.5zm9.104 0a1.5 1.5 0 0 0 1.5-1.5V6.742a1.5 1.5 0 1 0-3 0v13.251a1.5 1.5 0 0 0 1.5 1.5zm9.11 0a1.5 1.5 0 0 0 1.5-1.5V6.742a1.5 1.5 0 1 0-3 0v13.251a1.5 1.5 0 0 0 1.5 1.5z"/>
</svg>
