<svg xmlns="http://www.w3.org/2000/svg" fill-rule="evenodd" viewBox="0 0 100 100">
    <path d="M72.078 27.588C53.761 9.272 30.319 12.88 21.092 15.282a8.47 8.47 0 0 0-6.052 6.039c-2.432 9.257-6.109 32.768 12.214 51.092C38.636 83.795 51.997 86.711 62.698 86.71a62.73 62.73 0 0 0 15.542-1.99 8.471 8.471 0 0 0 6.052-6.039c2.432-9.259 6.109-32.77-12.214-51.093zm-54.137-5.506a5.467 5.467 0 0 1 3.905-3.897 59.541 59.541 0 0 1 14.762-1.893l.109.002-20.709 20.709a59.936 59.936 0 0 1 1.933-14.921zm11.434 48.209c-9.244-9.244-12.517-19.927-13.215-29.197l24.637-24.637c9.25.718 19.916 4.008 29.16 13.251 9.244 9.244 12.517 19.927 13.215 29.198L58.536 83.542c-9.251-.717-19.917-4.007-29.161-13.251zm52.016 7.627a5.465 5.465 0 0 1-3.906 3.896 59.6 59.6 0 0 1-14.868 1.889l20.706-20.706a59.89 59.89 0 0 1-1.932 14.921z"/>
    <path d="M65.746 54.033a1.5 1.5 0 0 0-2.121 0l-3.904 3.904-4.534-4.534 3.97-3.97a1.5 1.5 0 1 0-2.121-2.121l-3.97 3.97-4.534-4.534 3.969-3.97a1.5 1.5 0 1 0-2.121-2.121l-3.969 3.97-4.534-4.534 3.97-3.969a1.5 1.5 0 1 0-2.121-2.121l-3.97 3.969-3.522-3.522a1.5 1.5 0 1 0-2.121 2.121l3.522 3.522-3.837 3.837a1.5 1.5 0 1 0 2.122 2.121l3.837-3.837 4.534 4.534-3.837 3.837a1.5 1.5 0 1 0 2.122 2.121l3.837-3.837 4.534 4.534-3.837 3.837a1.5 1.5 0 1 0 2.122 2.121l3.837-3.837 4.534 4.534-3.904 3.904a1.5 1.5 0 1 0 2.122 2.121l3.904-3.904 3.849 3.849c.293.293.677.439 1.061.439s.768-.146 1.061-.439a1.5 1.5 0 0 0 0-2.121l-3.849-3.849 3.904-3.904a1.504 1.504 0 0 0-.005-2.121z"/>
</svg>
