<?xml version="1.0" encoding="UTF-8"?> <svg xmlns="http://www.w3.org/2000/svg" viewBox="0 0 100 100" fill-rule="evenodd"> <rect x="0" y="0" width="100" height="100" fill="#f2f2f2" rx="50" ry="50"></rect> <g fill="#000000" style="transform-origin: center center; transform: scale(0.75);"> <path d="M85.59 69.15 56.5 39.53a24.55 24.55 0 0 0-5.89-23.15 23.81 23.81 0 0 0-33.77-.52 24.5 24.5 0 0 0-.24 34.52 23.67 23.67 0 0 0 24.12 6l3.15 3.21a1.5 1.5 0 0 0 1.08.45L56 60v11.5a1.5 1.5 0 0 0 1.5 1.5H69v11.5a1.5 1.5 0 0 0 1.5 1.5h14a1.5 1.5 0 0 0 1.5-1.5V70.2a1.5 1.5 0 0 0-.41-1.05ZM83 83H72V71.48A1.5 1.5 0 0 0 70.5 70H59V58.46a1.5 1.5 0 0 0-.44-1.06 1.63 1.63 0 0 0-1.07-.4H45.56l-3.38-3.44a1.49 1.49 0 0 0-1.59-.36 20.66 20.66 0 0 1-21.86-4.93A21.5 21.5 0 0 1 18.94 18a20.81 20.81 0 0 1 29.49.46 21.55 21.55 0 0 1 4.95 21.07 1.5 1.5 0 0 0 .36 1.47L83 70.81Z"></path> <path d="M30.09 20.36a4.51 4.51 0 0 0-6.36 0l-3.54 3.54a4.5 4.5 0 0 0 0 6.36l3.54 3.54a4.5 4.5 0 0 0 6.36 0l3.54-3.54a4.51 4.51 0 0 0 0-6.36Zm1.41 7.78L28 31.68a1.54 1.54 0 0 1-2.12 0l-3.54-3.54a1.5 1.5 0 0 1 0-2.12l3.54-3.54a1.5 1.5 0 0 1 2.12 0L31.5 26a1.5 1.5 0 0 1 0 2.14Z"></path> </g> </svg> 